# xmcd CD database file
#
# Track frame offsets:
#	150
#	19945
#	41106
#	65643
#	87151
#	110992
#	133593
#	157019
#	175741
#	196775
#	221582
#	246916
#
# Disc length: 3588 seconds
#
# Revision: 0
# Processed by: cddbd v1.5PL3 Copyright (c) Steve Scherf et al.
# Submitted via: CDex 1.50beta9
#
DISCID=af0e020c
DTITLE=SPYRO GYRA - Dreams Beyond Control
DYEAR=1993
DGENRE=Jazz
TTITLE0=Walk the Walk
TTITLE1=Patterns in the Rain
TTITLE2=Breakfast at Igor's
TTITLE3=Waltz for Isabel
TTITLE4=South Beach
TTITLE5=Send Me One Line
TTITLE6=Bahia
TTITLE7=Kindred Spirit
TTITLE8=Birks Law
TTITLE9=Same Difference
TTITLE10=The Delicate Prey
TTITLE11=Friendly Fire
EXTD=YEAR: 1993
EXTT0=
EXTT1=
EXTT2=
EXTT3=
EXTT4=
EXTT5=
EXTT6=
EXTT7=
EXTT8=
EXTT9=
EXTT10=
EXTT11=
PLAYORDER=
